{"title":"Family 429 Canada De Nazare (2014) DVDRip - XviD - 1CD - [DDR-Ex","uid":11011335,"size":730836992,"categoryP":"video","categoryS":"movies","magnet":"?xt=urn:btih:299945dba16189698dbf2f0c49ece9fd24f922f6&amp;dn=Family+429+Canada+De+Nazare+%282014%29+DVDRip+-+XviD+-+1CD+-+%5BDDR-Ex&amp;tr=udp%3A%2F%2Ftracker.openbittorrent.com%3A80&amp;tr=udp%3A%2F%2Fopen.demonii.com%3A1337&amp;tr=udp%3A%2F%2Ftracker.coppersurfer.tk%3A6969&amp;tr=udp%3A%2F%2Fexodus.desync.com%3A6969","seeders":2,"leechers":0,"uploader":"SaM","files":1,"time":1410364922,"description":"---------------------------------------------------------------------------------------------------------------------------------------\nMovie Info\n---------------------------------------------------------------------------------------------------------------------------------------\n\nMovie Name : Family 429 Canada De Nazare\nStarring : Gurchet Chittarkar, Gurdeep Kakrala, Prakash Gadhu, Daman Deep Sandhu, Satinder Kaur &amp; More\nDirected : Shiv Sidhu, Gurdeep Kakrala\nProducer, Story &amp; Dialogue : Gurchet Chittarkar\nMusic : Sukhwant Lovely\nMovie Release Date : Aug 2014\nRipper : AnMoL\nSource : DVD9 My Own Collection\nAudio : Punjabi\nSubtitle : N/A\n\n---------------------------------------------------------------------------------------------------------------------------------------\nTech Info\n---------------------------------------------------------------------------------------------------------------------------------------\n\nFormat : AVI\nFormat/Info : Audio Video Interleave\nFile size : 697 MiB\nDuration : 1h 7mn\nOverall bit rate : 1 444 Kbps\n\nVideo\nFormat : MPEG-4 Visual\nCodec ID : XVID\nCodec ID/Hint : XviD\nDuration : 1h 7mn\nBit rate : 1 354 Kbps\nWidth : 656 pixels\nHeight : 304 pixels\nDisplay aspect ratio : 2.2:1\nFrame rate : 23.976 fps\ncolor space : YUV\nChroma subsampling : 4:2:0\nBit depth : 8 bits\nScan type : Progressive\nCompression mode : Lossy\nBits/(Pixel*Frame) : 0.283\nStream size : 654 MiB (94%)\n\nAudio\nID : 1\nFormat : MPEG Audio\nFormat version : Version 1\nFormat profile : Layer 3\nMode : Joint stereo\nMode extension : MS Stereo\nCodec ID : 55\nCodec ID/Hint : MP3\nDuration : 1h 7mn\nBit rate mode : Constant\nBit rate : 80.0 Kbps\nChannel(s) : 2 channels\nSampling rate : 32.0 KHz\nCompression mode : Lossy\nStream size : 38.6 MiB (6%)\n\n---------------------------------------------------------------------------------------------------------------------------------------\nScreen Shot\n--------------------------------------------------------------------------------------------------------------------------------------- &lt;a href=&quot;\nhttp://i.imgur.com/W3Ij5mG.png&quot; rel=&quot;nofollow&quot; target=&quot;_NEW&quot;&gt;\nhttp://i.imgur.com/W3Ij5mG.png&lt;/a&gt; &lt;a href=&quot;\nhttp://i.imgur.com/0AK2yAF.png&quot; rel=&quot;nofollow&quot; target=&quot;_NEW&quot;&gt;\nhttp://i.imgur.com/0AK2yAF.png&lt;/a&gt; &lt;a href=&quot;\nhttp://i.imgur.com/dhDJnYh.png&quot; rel=&quot;nofollow&quot; target=&quot;_NEW&quot;&gt;\nhttp://i.imgur.com/dhDJnYh.png&lt;/a&gt; &lt;a href=&quot;\nhttp://i.imgur.com/cQ7aquh.png&quot; rel=&quot;nofollow&quot; target=&quot;_NEW&quot;&gt;\nhttp://i.imgur.com/cQ7aquh.png&lt;/a&gt; &lt;a href=&quot;\nhttp://i.imgur.com/OowMf1r.png&quot; rel=&quot;nofollow&quot; target=&quot;_NEW&quot;&gt;\nhttp://i.imgur.com/OowMf1r.png&lt;/a&gt;","torrent":{"xt":"urn:btih:299945dba16189698dbf2f0c49ece9fd24f922f6","amp;dn":"Family+429+Canada+De+Nazare+%282014%29+DVDRip+-+XviD+-+1CD+-+%5BDDR-Ex","amp;tr":["udp%3A%2F%2Ftracker.openbittorrent.com%3A80","udp%3A%2F%2Fopen.demonii.com%3A1337","udp%3A%2F%2Ftracker.coppersurfer.tk%3A6969","udp%3A%2F%2Fexodus.desync.com%3A6969"],"infoHash":"299945dba16189698dbf2f0c49ece9fd24f922f6","infoHashBuffer":{"type":"Buffer","data":[41,153,69,219,161,97,137,105,141,191,47,12,73,236,233,253,36,249,34,246]},"announce":[],"urlList":[]}}